<?xml version="1.0" encoding="UTF-8" standalone="no"?>
<!DOCTYPE svg PUBLIC "-//W3C//DTD SVG 1.1//EN" "http://www.w3.org/Graphics/SVG/1.1/DTD/svg11.dtd">
<svg width="100%" height="100%" viewBox="0 0 24 24" version="1.1" xmlns="http://www.w3.org/2000/svg" xmlns:xlink="http://www.w3.org/1999/xlink" xml:space="preserve" xmlns:serif="http://www.serif.com/" style="fill-rule:evenodd;clip-rule:evenodd;stroke-linejoin:round;stroke-miterlimit:2;">
    <g transform="matrix(0.025,0,0,0.025,0,24)">
        <path d="M160,-160C138,-160 119.167,-167.833 103.5,-183.5C87.833,-199.167 80,-218 80,-240L80,-720C80,-742 87.833,-760.833 103.5,-776.5C119.167,-792.167 138,-800 160,-800L400,-800L480,-720L800,-720C822,-720 840.833,-712.167 856.5,-696.5C872.167,-680.833 880,-662 880,-640L880,-240C880,-218 872.167,-199.167 856.5,-183.5C840.833,-167.833 822,-160 800,-160L160,-160ZM160,-240L800,-240L800,-640L447,-640L367,-720L160,-720L160,-240ZM160,-240L160,-720L160,-240Z" style="fill:rgb(83,131,227);fill-rule:nonzero;"/>
    </g>
    <g transform="matrix(0.011271,0,0,0.011271,4.140413,17.647262)">
        <path d="M120,-240L120,-320L360,-320L360,-240L120,-240ZM120,-440L120,-520L600,-520L600,-440L120,-440ZM120,-640L120,-720L840,-720L840,-640L120,-640Z" style="fill:rgb(83,131,227);fill-rule:nonzero;"/>
    </g>
    <g transform="matrix(0.006478,0,0,0.006478,12.830671,17.210533)">
        <path d="M840,-680L840,-200C840,-178 832.167,-159.167 816.5,-143.5C800.833,-127.833 782,-120 760,-120L200,-120C178,-120 159.167,-127.833 143.5,-143.5C127.833,-159.167 120,-178 120,-200L120,-760C120,-782 127.833,-800.833 143.5,-816.5C159.167,-832.167 178,-840 200,-840L680,-840L840,-680ZM760,-646L646,-760L200,-760L200,-200L760,-200L760,-646ZM480,-240C513.333,-240 541.667,-251.667 565,-275C588.333,-298.333 600,-326.667 600,-360C600,-393.333 588.333,-421.667 565,-445C541.667,-468.333 513.333,-480 480,-480C446.667,-480 418.333,-468.333 395,-445C371.667,-421.667 360,-393.333 360,-360C360,-326.667 371.667,-298.333 395,-275C418.333,-251.667 446.667,-240 480,-240ZM240,-560L600,-560L600,-720L240,-720L240,-560ZM200,-760L200,-200L200,-760Z" style="fill:rgb(83,131,227);fill-rule:nonzero;"/>
    </g>
</svg>
